<svg id="visual" viewBox="0 0 960 540" width="960" height="540" xmlns="http://www.w3.org/2000/svg" xmlns:xlink="http://www.w3.org/1999/xlink" version="1.1"><rect x="0" y="0" width="960" height="540" fill="#12061d"></rect><defs><linearGradient id="grad1_0" x1="43.8%" y1="0%" x2="100%" y2="100%"><stop offset="14.444444444444446%" stop-color="#9b3cfa" stop-opacity="1"></stop><stop offset="85.55555555555554%" stop-color="#9b3cfa" stop-opacity="1"></stop></linearGradient></defs><defs><linearGradient id="grad1_1" x1="43.8%" y1="0%" x2="100%" y2="100%"><stop offset="14.444444444444446%" stop-color="#9b3cfa" stop-opacity="1"></stop><stop offset="85.55555555555554%" stop-color="#7e36d2" stop-opacity="1"></stop></linearGradient></defs><defs><linearGradient id="grad1_2" x1="43.8%" y1="0%" x2="100%" y2="100%"><stop offset="14.444444444444446%" stop-color="#642fab" stop-opacity="1"></stop><stop offset="85.55555555555554%" stop-color="#7e36d2" stop-opacity="1"></stop></linearGradient></defs><defs><linearGradient id="grad1_3" x1="43.8%" y1="0%" x2="100%" y2="100%"><stop offset="14.444444444444446%" stop-color="#642fab" stop-opacity="1"></stop><stop offset="85.55555555555554%" stop-color="#4b2785" stop-opacity="1"></stop></linearGradient></defs><defs><linearGradient id="grad1_4" x1="43.8%" y1="0%" x2="100%" y2="100%"><stop offset="14.444444444444446%" stop-color="#361e60" stop-opacity="1"></stop><stop offset="85.55555555555554%" stop-color="#4b2785" stop-opacity="1"></stop></linearGradient></defs><defs><linearGradient id="grad1_5" x1="43.8%" y1="0%" x2="100%" y2="100%"><stop offset="14.444444444444446%" stop-color="#361e60" stop-opacity="1"></stop><stop offset="85.55555555555554%" stop-color="#22153d" stop-opacity="1"></stop></linearGradient></defs><defs><linearGradient id="grad1_6" x1="43.8%" y1="0%" x2="100%" y2="100%"><stop offset="14.444444444444446%" stop-color="#12061d" stop-opacity="1"></stop><stop offset="85.55555555555554%" stop-color="#22153d" stop-opacity="1"></stop></linearGradient></defs><defs><linearGradient id="grad2_0" x1="0%" y1="0%" x2="56.3%" y2="100%"><stop offset="14.444444444444446%" stop-color="#9b3cfa" stop-opacity="1"></stop><stop offset="85.55555555555554%" stop-color="#9b3cfa" stop-opacity="1"></stop></linearGradient></defs><defs><linearGradient id="grad2_1" x1="0%" y1="0%" x2="56.3%" y2="100%"><stop offset="14.444444444444446%" stop-color="#7e36d2" stop-opacity="1"></stop><stop offset="85.55555555555554%" stop-color="#9b3cfa" stop-opacity="1"></stop></linearGradient></defs><defs><linearGradient id="grad2_2" x1="0%" y1="0%" x2="56.3%" y2="100%"><stop offset="14.444444444444446%" stop-color="#7e36d2" stop-opacity="1"></stop><stop offset="85.55555555555554%" stop-color="#642fab" stop-opacity="1"></stop></linearGradient></defs><defs><linearGradient id="grad2_3" x1="0%" y1="0%" x2="56.3%" y2="100%"><stop offset="14.444444444444446%" stop-color="#4b2785" stop-opacity="1"></stop><stop offset="85.55555555555554%" stop-color="#642fab" stop-opacity="1"></stop></linearGradient></defs><defs><linearGradient id="grad2_4" x1="0%" y1="0%" x2="56.3%" y2="100%"><stop offset="14.444444444444446%" stop-color="#4b2785" stop-opacity="1"></stop><stop offset="85.55555555555554%" stop-color="#361e60" stop-opacity="1"></stop></linearGradient></defs><defs><linearGradient id="grad2_5" x1="0%" y1="0%" x2="56.3%" y2="100%"><stop offset="14.444444444444446%" stop-color="#22153d" stop-opacity="1"></stop><stop offset="85.55555555555554%" stop-color="#361e60" stop-opacity="1"></stop></linearGradient></defs><defs><linearGradient id="grad2_6" x1="0%" y1="0%" x2="56.3%" y2="100%"><stop offset="14.444444444444446%" stop-color="#22153d" stop-opacity="1"></stop><stop offset="85.55555555555554%" stop-color="#12061d" stop-opacity="1"></stop></linearGradient></defs><g transform="translate(960, 0)"><path d="M0 513C-66.7 502.1 -133.4 491.3 -192.9 465.6C-252.4 440 -304.7 399.5 -353.6 353.6C-402.4 307.6 -447.9 256.2 -474 196.3C-500 136.5 -506.5 68.2 -513 0L0 0Z" fill="#1a102d"></path><path d="M0 439.7C-57.2 430.4 -114.3 421.1 -165.3 399.1C-216.3 377.1 -261.1 342.4 -303 303C-345 263.7 -384 219.6 -406.2 168.3C-428.5 117 -434.1 58.5 -439.7 0L0 0Z" fill="#2c1a4e"></path><path d="M0 366.4C-47.6 358.7 -95.3 350.9 -137.8 332.6C-180.3 314.3 -217.6 285.4 -252.5 252.5C-287.5 219.7 -320 183 -338.5 140.2C-357.1 97.5 -361.8 48.7 -366.4 0L0 0Z" fill="#402372"></path><path d="M0 293.1C-38.1 286.9 -76.2 280.7 -110.2 266.1C-144.2 251.4 -174.1 228.3 -202 202C-230 175.8 -256 146.4 -270.8 112.2C-285.7 78 -289.4 39 -293.1 0L0 0Z" fill="#572b98"></path><path d="M0 219.9C-28.6 215.2 -57.2 210.6 -82.7 199.6C-108.2 188.6 -130.6 171.2 -151.5 151.5C-172.5 131.8 -192 109.8 -203.1 84.1C-214.3 58.5 -217.1 29.2 -219.9 0L0 0Z" fill="#7133be"></path><path d="M0 146.6C-19.1 143.5 -38.1 140.4 -55.1 133C-72.1 125.7 -87 114.1 -101 101C-115 87.9 -128 73.2 -135.4 56.1C-142.8 39 -144.7 19.5 -146.6 0L0 0Z" fill="#8c39e6"></path><path d="M0 73.3C-9.5 71.7 -19.1 70.2 -27.6 66.5C-36.1 62.9 -43.5 57.1 -50.5 50.5C-57.5 43.9 -64 36.6 -67.7 28C-71.4 19.5 -72.4 9.7 -73.3 0L0 0Z" fill="#9b3cfa"></path></g><g transform="translate(0, 540)"><path d="M0 -513C69.1 -507.2 138.2 -501.5 196.3 -474C254.5 -446.4 301.7 -397.1 348.6 -348.6C395.5 -300.1 442 -252.4 469.3 -194.4C496.7 -136.4 504.8 -68.2 513 0L0 0Z" fill="#1a102d"></path><path d="M0 -439.7C59.2 -434.8 118.4 -429.8 168.3 -406.2C218.1 -382.6 258.6 -340.4 298.8 -298.8C339 -257.2 378.9 -216.3 402.3 -166.6C425.7 -116.9 432.7 -58.5 439.7 0L0 0Z" fill="#2c1a4e"></path><path d="M0 -366.4C49.3 -362.3 98.7 -358.2 140.2 -338.5C181.8 -318.9 215.5 -283.7 249 -249C282.5 -214.4 315.7 -180.3 335.2 -138.9C354.8 -97.5 360.6 -48.7 366.4 0L0 0Z" fill="#402372"></path><path d="M0 -293.1C39.5 -289.9 78.9 -286.6 112.2 -270.8C145.4 -255.1 172.4 -226.9 199.2 -199.2C226 -171.5 252.6 -144.2 268.2 -111.1C283.8 -78 288.5 -39 293.1 0L0 0Z" fill="#572b98"></path><path d="M0 -219.9C29.6 -217.4 59.2 -214.9 84.1 -203.1C109.1 -191.3 129.3 -170.2 149.4 -149.4C169.5 -128.6 189.4 -108.2 201.1 -83.3C212.9 -58.5 216.4 -29.2 219.9 0L0 0Z" fill="#7133be"></path><path d="M0 -146.6C19.7 -144.9 39.5 -143.3 56.1 -135.4C72.7 -127.5 86.2 -113.5 99.6 -99.6C113 -85.7 126.3 -72.1 134.1 -55.5C141.9 -39 144.2 -19.5 146.6 0L0 0Z" fill="#8c39e6"></path><path d="M0 -73.3C9.9 -72.5 19.7 -71.6 28 -67.7C36.4 -63.8 43.1 -56.7 49.8 -49.8C56.5 -42.9 63.1 -36.1 67 -27.8C71 -19.5 72.1 -9.7 73.3 0L0 0Z" fill="#9b3cfa"></path></g></svg>